<svg id="Layer_1" data-name="Layer 1" xmlns="http://www.w3.org/2000/svg" viewBox="0 0 45 45"><defs><style>.cls-1{fill:#f09;}.cls-2{fill:#fff;}</style></defs><title>apple-touch-icon</title><rect class="cls-1" width="45" height="45"/><path class="cls-2" d="M32.21,29.87a1.52,1.52,0,0,0-2.08.56,8.8,8.8,0,0,1-15.26,0A1.53,1.53,0,1,0,12.23,32a11.85,11.85,0,0,0,20.54,0A1.52,1.52,0,0,0,32.21,29.87Z"/><path class="cls-2" d="M5.6,13.4a6.14,6.14,0,0,0,6.29,6.18A6.23,6.23,0,1,0,5.6,13.4Z"/><path class="cls-2" d="M26.93,13.4a6.23,6.23,0,0,0,12.47,0,6.23,6.23,0,1,0-12.47,0Z"/></svg>