<svg id="Layer_1" data-name="Layer 1" xmlns="http://www.w3.org/2000/svg" viewBox="0 0 100 100"><defs><style>.cls-1{fill:#f09;}.cls-2{fill:#fff;}</style></defs><title>default-icon-venti</title><path class="cls-1" d="M20.87,99.88l-1-9.3L19.5,90h0c.08-.2.17-.39.26-.58l-.13-.26-.14-.3h0c.1-.19.21-.37.32-.55-.08-.19-.15-.38-.22-.58h0c.12-.18.24-.35.37-.52h0c-.06-.2-.12-.4-.17-.6h0c.13-.17.27-.33.41-.48h0c0-.2-.08-.41-.11-.62h0c.15-.16.3-.3.46-.45,0-.21,0-.42-.05-.63h0c.17-.14.33-.28.5-.4,0-.21,0-.42,0-.63h0c.18-.12.35-.24.53-.35l0-.39c0-.08,0-.16,0-.24h0l.56-.3c0-.21.08-.41.13-.62h0l.59-.24c.06-.2.12-.4.18-.6h0l.61-.19h0c.07-.19.15-.38.24-.58h0l.63-.13q.14-.28.29-.56h0l.63-.07.18-.12.29-.2,13-8.79a18.82,18.82,0,0,1-4.33-5.06,2.42,2.42,0,0,1,4.19-2.43,14,14,0,0,0,24.24,0,2.42,2.42,0,1,1,4.19,2.43A18.92,18.92,0,0,1,51,74.31,18.72,18.72,0,0,1,43,72.52L27.83,82.83h0c0,.09-.05.18-.08.28l0,.18h0l-.47-.06h0c0,.16-.06.31-.08.47h0l-.47,0h0c0,.16,0,.32,0,.47h0l-.47,0h0c0,.16,0,.31,0,.47h0l-.47.07h0c0,.16,0,.31.05.47h0l-.45.11h0c0,.15.06.31.1.46h0L25,86,25,86c0,.13.08.25.12.38h0l-.43.2h0c.05.15.12.29.18.43h0l-.41.24h0c.07.14.15.28.22.42h0l-.38.27h0c.08.14.17.27.26.39h0l-.36.31h0l.29.37h0l-.33.34h0l.33.34h0l-.3.37h0v.05l1.09,9.7"/><path class="cls-1" d="M100,0H0V100H22c-.38-1.59-.86-4-.92-4.23-.7-2.93-1.76-5.82-1.2-8.86.76-4.13,3.87-6.7,7.18-8.92Q33,74,39,69.95a18.56,18.56,0,0,1-4.89-6.12c.64-3.13,3.7-3.19,4.76-1.37a14,14,0,0,0,24.76-1c3.11-1.09,4.74,1.57,3.67,3.41A18.92,18.92,0,0,1,51,74.31,18.72,18.72,0,0,1,43,72.52l-7.2,4.87-5.16,3.5-1.85,1.26c-1.4,1-3.05,2.21-3.75,3.84-2,4.74.89,8.25,1,14H100Z"/><path class="cls-2" d="M25.09,86c.69-1.63,2.34-2.87,3.75-3.84l1.85-1.26,5.16-3.5L43,72.52A18.72,18.72,0,0,0,51,74.31a18.92,18.92,0,0,0,16.31-9.42,2.42,2.42,0,1,0-4.19-2.43,14,14,0,0,1-24.24,0,2.42,2.42,0,0,0-4.19,2.43A18.82,18.82,0,0,0,39,69.95Q33,74,27,78c-3.31,2.22-6.42,4.79-7.18,8.92-.56,3,.5,5.93,1.2,8.86.06.26.54,2.64.92,4.23h4.55L25.4,95.17C24.64,91.94,23.7,89.26,25.09,86Z"/><path class="cls-2" d="M23.73,35.42a9.9,9.9,0,0,0,19.8,0,9.9,9.9,0,1,0-19.8,0Z"/><path class="cls-2" d="M57.61,35.42a9.9,9.9,0,0,0,19.8,0,9.9,9.9,0,1,0-19.8,0Z"/></svg>