<svg id="Layer_1" data-name="Layer 1" xmlns="http://www.w3.org/2000/svg" viewBox="0 0 11.73 10.11"><defs><style>.cls-1{fill:#ff0200;}.cls-2{fill:#fff;}</style></defs><title>heart-unfavor</title><path class="cls-1" d="M5.55,8.84a3.09,3.09,0,0,1,5.87-1.36,3.09,3.09,0,0,1,5.87,1.36c0,4.06-5.87,7-5.87,7s-5.87-3-5.87-7" transform="translate(-5.55 -5.75)"/><path class="cls-2" d="M13.13,12.1a.27.27,0,0,0-.37.1,1.55,1.55,0,0,1-2.69,0,.27.27,0,1,0-.46.27,2.09,2.09,0,0,0,3.62,0A.27.27,0,0,0,13.13,12.1Z" transform="translate(-5.55 -5.75)"/><path class="cls-2" d="M8.45,9.2a1.1,1.1,0,0,0,2.19,0,1.1,1.1,0,1,0-2.19,0Z" transform="translate(-5.55 -5.75)"/><path class="cls-2" d="M12.2,9.2a1.1,1.1,0,0,0,2.19,0,1.1,1.1,0,1,0-2.19,0Z" transform="translate(-5.55 -5.75)"/></svg>