<svg id="Layer_1" data-name="Layer 1" xmlns="http://www.w3.org/2000/svg" viewBox="0 0 10.79 8"><defs><style>.cls-1{fill:#ff9d00;}</style></defs><title>save-icon-8px</title><path class="cls-1" d="M8.76,8V4.4c0-.13-.07-.18-.23-.23H2.26A.27.27,0,0,0,2,4.4V8Z"/><path class="cls-1" d="M0,.67V.61L0,.29v0L1.89.39h.05L2,.37H2l0,0,.06,0h0l0,0h.06l0,0h.06l0,0h.06v0l0,0H2.5l0,0h.06l0,.05h.06l0,.05h0l.05,0h0V.79h0l.05,0h0V.87l.05,0h0V1l0,0h0s0,0,0,.06l.4.9h0L3,2.09l0,0-.39-.89h0l0,0h0v0h0v0h0s0,0,0,0h0s0,0,0,0h0V1h0v0h0v0h0l0,0h0l0,0h0l0,0h0l0,0h0l0,0h0l0,0H2l0,0H2l0,0H2l0,0h0Z"/><path class="cls-1" d="M10.79.67V.61l0-.33v0L8.89.39H8.84l-.05,0h0l0,0-.06,0h0l0,0H8.58l0,0H8.48l0,0H8.38v0l0,0H8.29l0,0H8.2l0,.05H8.12l0,.05h0L8,.73H8V.79H8L8,.81H8V.87L7.91.9h0V1l0,0h0s0,0,0,.06l-.4.9h0l.3.13,0,0,.39-.89h0l0,0h0v0h0v0h0s0,0,0,0h0s0,0,0,0h0V1h0v0h0v0h0l0,0h0l0,0h0l0,0h0l0,0h0l0,0h0l0,0h0l0,0h0l0,0h0l0,0h0Z"/><path class="cls-1" d="M8.75,3.45A1,1,0,0,0,9,2.76,1.16,1.16,0,0,0,7.87,1.68,1.2,1.2,0,0,0,6.64.75H6.58A1.23,1.23,0,0,0,5.39,0,1.23,1.23,0,0,0,4.21.77L4,.75a1.19,1.19,0,0,0-1.23.94,1.13,1.13,0,0,0-1,1.06,1,1,0,0,0,.3.69Z"/></svg>