<svg id="Layer_1" data-name="Layer 1" xmlns="http://www.w3.org/2000/svg" viewBox="0 0 52.14 79.63"><defs><style>.cls-1{fill:#3d3d3d;}.cls-2{fill:#00aeff;}</style></defs><title>icon-reply-arrow</title><line class="cls-1" x1="19.97" x2="52.14"/><path class="cls-2" d="M7.93,3.91V9.53a.64.64,0,0,1-1,.54L2.47,7.26a.64.64,0,0,1,0-1.08L7,3.37A.64.64,0,0,1,7.93,3.91Z" transform="translate(-2.17 64.96)"/><path class="cls-2" d="M8.94,8.24a3.46,3.46,0,0,1,2.26,4.33l0,.06a.64.64,0,0,0,.12.62l1.05,1.24a.51.51,0,0,0,.84-.09A6,6,0,0,0,7.87,5.53L7,8.2A3.43,3.43,0,0,1,8.94,8.24Z" transform="translate(-2.17 64.96)"/></svg>