<svg id="Layer_1" data-name="Layer 1" xmlns="http://www.w3.org/2000/svg" viewBox="0 0 17.41 15"><defs><style>.cls-1{fill:#ff0200;}.cls-2{fill:#fff;}</style></defs><title>like-icon-15px</title><path class="cls-1" d="M0,4.59a4.59,4.59,0,0,1,8.71-2,4.59,4.59,0,0,1,8.71,2c0,6-8.71,10.41-8.71,10.41S0,10.61,0,4.59"/><path class="cls-2" d="M11.24,9.43a.4.4,0,0,0-.54.15,2.3,2.3,0,0,1-4,0A.4.4,0,1,0,6,10a3.1,3.1,0,0,0,5.37,0A.4.4,0,0,0,11.24,9.43Z"/><path class="cls-2" d="M4.29,5.12a1.63,1.63,0,0,0,3.26,0,1.63,1.63,0,1,0-3.26,0Z"/><path class="cls-2" d="M9.86,5.12a1.63,1.63,0,0,0,3.26,0,1.63,1.63,0,1,0-3.26,0Z"/></svg>