<svg id="Layer_1" data-name="Layer 1" xmlns="http://www.w3.org/2000/svg" viewBox="0 0 423 106"><defs><style>.cls-1{fill:none;}.cls-2{fill:#f09;}.cls-3{fill:#fff;}.cls-4{fill:#a6f3ff;fill-rule:evenodd;opacity:0.85;}</style></defs><title>logo</title><path class="cls-1" d="M65.27,87.51c2.09,0,3.78.29,3.78-.55s-1.69-1.53-3.78-1.53-3.78.68-3.78,1.53S63.18,87.51,65.27,87.51Z" transform="translate(-1)"/><path class="cls-2" d="M51.23,38.21V54.59c0,3.71,10.36,23.88,10.36,27.2S53,86.7,51.23,87.72c-.91.52-.52,1.84,1.26,1.84H77.74c1.85,0,2.57-1,1.63-1.84C78,86.58,69,85.12,69,81.8s10.36-23.49,10.36-27.2V38.21c0-.49,0-1.07-.34-1.07H51.58C51.19,37.13,51.23,37.8,51.23,38.21Zm14,47.22c2.09,0,3.78.68,3.78,1.53s-1.69.55-3.78.55-3.78.29-3.78-.55S63.18,85.43,65.27,85.43Z" transform="translate(-1)"/><path class="cls-3" d="M69.6,61.56a.68.68,0,0,0-.93.25,3.93,3.93,0,0,1-6.81,0,.68.68,0,1,0-1.18.68,5.29,5.29,0,0,0,9.16,0A.68.68,0,0,0,69.6,61.56Z" transform="translate(-1)"/><path class="cls-3" d="M57.73,54.22a2.78,2.78,0,0,0,5.56,0,2.78,2.78,0,1,0-5.56,0Z" transform="translate(-1)"/><path class="cls-3" d="M67.25,54.22a2.78,2.78,0,0,0,5.56,0,2.78,2.78,0,1,0-5.56,0Z" transform="translate(-1)"/><path class="cls-4" d="M69.19,67.61s60.43,17.18,108.88,14.47,76.14-16.75,76.14-16.75,1.2,8.58,7.61,13.7c4.76,3.81,15.23,4.57,15.23,4.57s30.76.49,63.2-2.28c29.89-2.55,61.67-8.38,61.67-8.38S424,68.26,424,43.25c0-34.38-22.08-38.07-22.08-38.07a488.45,488.45,0,0,0-49.2-1.74c-34.52.59-74.9,4-74.9,4s-15,4.24-20.56,12.18c-8.06,11.55-7.61,28.17-7.61,28.17S218,67,180.36,71.42C129.73,77.4,69.19,67.61,69.19,67.61Z" transform="translate(-1)"/><path class="cls-2" d="M14.72,74.54v15H1V73.72c0-8.87,5.53-15.15,15.29-15.15a16.62,16.62,0,0,1,11.53,4.09,16.62,16.62,0,0,1,11.53-4.09c9.83,0,15.35,6.28,15.35,15.15V89.55H40.92v-15c0-1.71-.82-3.62-3.07-3.62s-3.14,1.91-3.14,3.62v15H21v-15c0-1.71-1-3.62-3.14-3.62S14.72,72.83,14.72,74.54Z" transform="translate(-1)"/><path class="cls-2" d="M81.65,47.25H95.37V59.8h6.35V70.86H95.37v2.25c0,3.07.48,5.32,4.57,5.32h1.77V89.55H96.12c-11.81,0-14.47-6.76-14.47-16.1Z" transform="translate(-1)"/><path class="cls-2" d="M104.4,79.11s5.32,2.66,9.62,2.66c1.23,0,2.73-.21,2.73-1.71s-2.12-1.37-5.94-2.25c-5.19-1.16-7.3-4.78-7.3-8.53,0-7.51,7.51-10.71,13.92-10.71,7.23,0,11.33,1.91,11.33,1.91v8.94a29,29,0,0,0-9.35-2c-1.23,0-2.59.27-2.59,1.36s1.5,1.43,3.62,1.84l1.71.27c5.59,1,8.12,4,8.12,8.67,0,7.71-6,11.19-14.26,11.19a27,27,0,0,1-11.6-2.32Z" transform="translate(-1)"/><path class="cls-2" d="M132.32,43.83H146V60.89a12,12,0,0,1,7.37-2.32c8.73,0,13.24,5.12,13.24,16v15H152.92v-15a3.43,3.43,0,0,0-3.48-3.62A3.35,3.35,0,0,0,146,74.54v15H132.32Z" transform="translate(-1)"/><path class="cls-2" d="M169.24,74.68c0-8.87,7.37-16.1,17.74-16.1s17.67,7.23,17.67,16.1c0,8.33-5.46,16.1-15.29,16.1a13.53,13.53,0,0,1-6.41-1.5V106H169.24Zm13.72,0a4,4,0,0,0,8,0,4,4,0,1,0-8,0Z" transform="translate(-1)"/><path class="cls-2" d="M57.61,14.91l.09.18c-.06.13-.12.26-.18.4h0l.22.37.5,4.45.6,0H59a6.94,6.94,0,0,1,2-2.49l-.25-2.2v0h0l.2-.25h0l-.22-.23h0l.22-.23h0l-.2-.25h0l.24-.21h0l-.18-.27h0l.26-.19h0l-.15-.28h0l.28-.16h0c0-.1-.09-.2-.12-.3h0l.29-.13h0c0-.08-.06-.17-.08-.26v-.05h0l.3-.11h0c0-.1,0-.21-.07-.31h0l.31-.08h0c0-.1,0-.21,0-.32h0l.32,0h0c0-.11,0-.21,0-.32h0l.32,0h0c0-.11,0-.21,0-.32h.32c0-.1,0-.21.06-.32h0l.32,0h0l0-.12.05-.19h0l12-8.13L75,2.12l-1.47-2L73.41,0,62,7.76l-.2.13L61.64,8l-.43,0h0l-.2.38-.43.09h0c-.06.13-.11.26-.16.4h0L60,9h0c0,.14-.09.27-.12.41l-.4.17h0c0,.14-.06.28-.09.42l-.39.21h0c0,.06,0,.11,0,.16l0,.26-.37.24h0c0,.14,0,.29,0,.43l-.34.27h0c0,.14,0,.29,0,.43l-.31.31h0c0,.14,0,.28.08.42h0l-.28.33h0c0,.14.08.28.12.41h0l-.25.36h0l.15.4c-.07.12-.15.25-.22.38h0Z" transform="translate(-1)"/><path class="cls-2" d="M75.11,16.64a4,4,0,0,0-1.19-.48c-.23-1.36-.87-2.22-1.31-2-.85.36.49,1.56.49,1.56,1,1.65.17,3.77-.28,4.67a1,1,0,0,1-.4-.28A2,2,0,0,0,70.29,20a2.72,2.72,0,0,0-1,3.07,3.35,3.35,0,0,0,4.55,1.74,2.72,2.72,0,0,0,1.33-2.92,2,2,0,0,0-1.63-1.37,1,1,0,0,1-.44,0,6.93,6.93,0,0,0,.8-4.08,2.91,2.91,0,0,1,1,.45c-.63,2.72,2.72,3.82,2.72,3.82C78.67,16.69,75.11,16.64,75.11,16.64Z" transform="translate(-1)"/><path class="cls-2" d="M76.37,26.86l-.34,0,0-.34a5.08,5.08,0,0,0-.23-.95,3.94,3.94,0,0,1-1.09.82,4.79,4.79,0,0,1-2.18.56,5.15,5.15,0,0,1-1.88-.38,4.61,4.61,0,0,1-2.13-7.29,5.16,5.16,0,0,0-8.22,2.57l-.11.35-.36-.07a5.14,5.14,0,0,0-6.09,4.45l0,.3-.29.06A5.21,5.21,0,0,0,49.13,32a5,5,0,0,0,1.14,3.17H80.17A5,5,0,0,0,81.32,32,5.2,5.2,0,0,0,76.37,26.86Z" transform="translate(-1)"/></svg>