<svg id="Layer_1" data-name="Layer 1" xmlns="http://www.w3.org/2000/svg" viewBox="0 0 165.24 86"><defs><style>.cls-1{fill:#f09;}.cls-2{fill:none;}.cls-3{fill:#fff;}</style></defs><title>logo-compact</title><path class="cls-1" d="M40.15,60.48V72.66H29V59.81c0-7.2,4.48-12.29,12.4-12.29a13.48,13.48,0,0,1,9.36,3.32,13.49,13.49,0,0,1,9.36-3.32c8,0,12.46,5.09,12.46,12.29V72.66H61.41V60.48c0-1.38-.66-2.93-2.49-2.93s-2.55,1.55-2.55,2.93V72.66H45.24V60.48a2.66,2.66,0,0,0-2.55-2.93C40.87,57.54,40.15,59.09,40.15,60.48Z" transform="translate(-29.02)"/><path class="cls-1" d="M94.46,38.33h11.13V48.52h5.15v9h-5.15v1.83c0,2.49.39,4.32,3.71,4.32h1.44v9H106.2c-9.58,0-11.74-5.48-11.74-13.07Z" transform="translate(-29.02)"/><path class="cls-1" d="M112.91,64.19s4.32,2.16,7.81,2.16c1,0,2.21-.17,2.21-1.38s-1.72-1.11-4.82-1.83c-4.21-.94-5.92-3.88-5.92-6.92,0-6.09,6.09-8.69,11.29-8.69a23.53,23.53,0,0,1,9.19,1.55v7.25a23.5,23.5,0,0,0-7.59-1.61c-1,0-2.1.22-2.1,1.11s1.22,1.16,2.93,1.49l1.38.22c4.54.78,6.59,3.21,6.59,7,0,6.26-4.87,9.08-11.57,9.08a21.91,21.91,0,0,1-9.41-1.88Z" transform="translate(-29.02)"/><path class="cls-1" d="M135.56,35.56h11.13V49.4a9.76,9.76,0,0,1,6-1.88c7.09,0,10.74,4.15,10.74,13V72.66H152.28V60.48a2.78,2.78,0,0,0-2.82-2.93,2.71,2.71,0,0,0-2.77,2.93V72.66H135.56Z" transform="translate(-29.02)"/><path class="cls-1" d="M165.52,60.59c0-7.2,6-13.07,14.4-13.07s14.34,5.87,14.34,13.07c0,6.75-4.43,13.07-12.4,13.07a11,11,0,0,1-5.2-1.22V86H165.52Zm11.13,0a3.24,3.24,0,0,0,6.48,0,3.24,3.24,0,1,0-6.48,0Z" transform="translate(-29.02)"/><path class="cls-1" d="M75,12.1l.07.14-.15.32h0l.18.3.41,3.61.49,0h.11a5.63,5.63,0,0,1,1.64-2l-.2-1.79v0h0l.16-.2h0l-.18-.19h0l.18-.19h0l-.16-.21h0l.2-.17h0l-.14-.22h0l.21-.15h0L77.64,11h0l.23-.13h0c0-.08-.07-.16-.1-.24h0l.24-.11h0c0-.07,0-.14-.07-.21v0h0l.25-.09h0c0-.08,0-.17-.05-.25h0l.25-.06h0c0-.08,0-.17,0-.26h0l.26,0h0c0-.09,0-.17,0-.26h.26c0-.09,0-.17,0-.26h.26c0-.08,0-.17,0-.26h0l.26,0h0l0-.1,0-.15h0L89.24,2l-.18-.25L87.86.12,87.77,0,78.49,6.29l-.16.11-.1.07-.35,0h0l-.16.31-.35.07h0c0,.11-.09.21-.13.32h0l-.34.1h0l-.1.33-.33.14h0c0,.11-.05.23-.07.34l-.31.17h0s0,.09,0,.13l0,.21-.3.2h0c0,.12,0,.24,0,.35l-.28.22h0c0,.12,0,.23,0,.35l-.25.25h0c0,.12,0,.23.06.34h0l-.23.27h0c0,.11.06.23.09.33h0l-.2.29h0l.12.32-.17.31h0Z" transform="translate(-29.02)"/><path class="cls-1" d="M89.15,13.5a3.28,3.28,0,0,0-1-.39c-.18-1.1-.71-1.8-1.06-1.65-.69.29.4,1.27.4,1.27.82,1.34.14,3.06-.23,3.79a.83.83,0,0,1-.33-.23,1.64,1.64,0,0,0-1.73-.05,2.21,2.21,0,0,0-.77,2.49,2.72,2.72,0,0,0,3.69,1.41,2.21,2.21,0,0,0,1.08-2.37,1.64,1.64,0,0,0-1.32-1.11.79.79,0,0,1-.36,0,5.62,5.62,0,0,0,.65-3.31,2.36,2.36,0,0,1,.77.36c-.51,2.21,2.21,3.1,2.21,3.1C92,13.54,89.15,13.5,89.15,13.5Z" transform="translate(-29.02)"/><path class="cls-1" d="M90.17,21.79H89.9l0-.27a4.12,4.12,0,0,0-.19-.77,3.19,3.19,0,0,1-.88.67,3.89,3.89,0,0,1-1.77.45,4.18,4.18,0,0,1-1.52-.31,3.74,3.74,0,0,1-1.73-5.91,4.19,4.19,0,0,0-6.67,2.08L77,18,76.72,18a4.17,4.17,0,0,0-4.94,3.61l0,.24-.24,0A4.23,4.23,0,0,0,68.07,26,4.08,4.08,0,0,0,69,28.57H93.25A4.05,4.05,0,0,0,94.19,26,4.22,4.22,0,0,0,90.17,21.79Z" transform="translate(-29.02)"/><path class="cls-2" d="M81.17,71c1.7,0,3.07.24,3.07-.45s-1.37-1.24-3.07-1.24-3.07.55-3.07,1.24S79.47,71,81.17,71Z" transform="translate(-29.02)"/><path class="cls-1" d="M69.78,31v13.3c0,3,8.4,19.37,8.4,22.07s-7,4-8.4,4.8c-.74.42-.42,1.49,1,1.49H91.28c1.5,0,2.08-.85,1.32-1.49-1.1-.92-8.4-2.11-8.4-4.8s8.4-19.06,8.4-22.07V31c0-.4,0-.87-.28-.87H70.06C69.74,30.13,69.78,30.67,69.78,31ZM81.17,69.31c1.7,0,3.07.55,3.07,1.24s-1.37.45-3.07.45-3.07.24-3.07-.45S79.47,69.31,81.17,69.31Z" transform="translate(-29.02)"/><path class="cls-3" d="M84.68,49.95a.55.55,0,0,0-.75.2,3.19,3.19,0,0,1-5.52,0,.55.55,0,1,0-1,.55,4.29,4.29,0,0,0,7.43,0A.55.55,0,0,0,84.68,49.95Z" transform="translate(-29.02)"/><path class="cls-3" d="M75.05,44a2.26,2.26,0,0,0,4.51,0,2.26,2.26,0,1,0-4.51,0Z" transform="translate(-29.02)"/><path class="cls-3" d="M82.77,44a2.26,2.26,0,0,0,4.51,0,2.26,2.26,0,1,0-4.51,0Z" transform="translate(-29.02)"/></svg>