<svg id="Layer_1" data-name="Layer 1" xmlns="http://www.w3.org/2000/svg" viewBox="0 0 94.15 49"><defs><style>.cls-1{fill:#f09;}.cls-2{fill:none;}.cls-3{fill:#fff;}</style></defs><title>mlkshk-tools-small</title><path class="cls-1" d="M8.34,34.46V41.4H2V34.08c0-4.1,2.55-7,7.07-7A7.68,7.68,0,0,1,14.4,29a7.68,7.68,0,0,1,5.33-1.89c4.54,0,7.1,2.9,7.1,7V41.4H20.45V34.46c0-.79-.38-1.67-1.42-1.67a1.5,1.5,0,0,0-1.45,1.67V41.4H11.24V34.46a1.52,1.52,0,0,0-1.45-1.67A1.5,1.5,0,0,0,8.34,34.46Z" transform="translate(-2)"/><path class="cls-1" d="M39.29,21.84h6.34v5.8h2.93v5.11H45.63v1c0,1.42.22,2.46,2.11,2.46h.82V41.4H46c-5.46,0-6.69-3.12-6.69-7.44Z" transform="translate(-2)"/><path class="cls-1" d="M49.8,36.57a12.22,12.22,0,0,0,4.45,1.23c.57,0,1.26-.09,1.26-.79s-1-.63-2.74-1A3.92,3.92,0,0,1,49.39,32c0-3.47,3.47-5,6.44-5a13.41,13.41,0,0,1,5.24.88v4.13a13.39,13.39,0,0,0-4.32-.91c-.57,0-1.2.13-1.2.63s.69.66,1.67.85l.79.13c2.59.44,3.75,1.83,3.75,4C61.75,40.36,59,42,55.16,42a12.48,12.48,0,0,1-5.36-1.07Z" transform="translate(-2)"/><path class="cls-1" d="M62.7,20.26H69v7.89a5.56,5.56,0,0,1,3.41-1.07c4,0,6.12,2.37,6.12,7.38V41.4H72.23V34.46a1.58,1.58,0,0,0-1.61-1.67A1.55,1.55,0,0,0,69,34.46V41.4H62.7Z" transform="translate(-2)"/><path class="cls-1" d="M79.77,34.52c0-4.1,3.41-7.44,8.2-7.44s8.17,3.34,8.17,7.44c0,3.85-2.52,7.44-7.07,7.44a6.25,6.25,0,0,1-3-.69V49H79.77Zm6.34,0a1.85,1.85,0,0,0,3.69,0,1.85,1.85,0,1,0-3.69,0Z" transform="translate(-2)"/><path class="cls-1" d="M28.17,6.89l0,.08-.08.18h0l.1.17.23,2.06h.34a3.21,3.21,0,0,1,.93-1.15l-.11-1v0h0l.09-.12h0L29.61,7h0l.1-.11h0l-.09-.12h0l.11-.1h0l-.08-.12h0l.12-.09h0l-.07-.13h0l.13-.07h0l-.06-.14h0L29.91,6h0l0-.12v0h0l.14,0h0s0-.1,0-.14h0l.14,0h0s0-.1,0-.15h0l.15,0h0s0-.1,0-.15h.15s0-.1,0-.15h.15l0-.15h0l.15,0h0V5l0-.09h0l5.55-3.76L36.21,1,35.53.07,35.48,0,30.18,3.59l-.09.06-.06,0-.2,0h0l-.09.18-.2,0h0l-.07.18h0l-.19.06h0l-.06.19L29,4.44h0c0,.07,0,.13,0,.19l-.18.09h0v.2L28.61,5h0c0,.07,0,.13,0,.2l-.16.13h0c0,.07,0,.13,0,.2l-.14.14h0c0,.07,0,.13,0,.19h0l-.13.15h0l.05.19h0l-.12.16h0l.07.18-.1.17h0Z" transform="translate(-2)"/><path class="cls-1" d="M36.26,7.69a1.87,1.87,0,0,0-.55-.22c-.1-.63-.4-1-.61-.94-.4.17.23.72.23.72a2.34,2.34,0,0,1-.13,2.16A.47.47,0,0,1,35,9.28a.93.93,0,0,0-1,0,1.26,1.26,0,0,0-.44,1.42,1.55,1.55,0,0,0,2.1.8,1.26,1.26,0,0,0,.62-1.35.93.93,0,0,0-.75-.63.45.45,0,0,1-.2,0,3.2,3.2,0,0,0,.37-1.89,1.34,1.34,0,0,1,.44.21C35.87,9,37.42,9.55,37.42,9.55,37.91,7.72,36.26,7.69,36.26,7.69Z" transform="translate(-2)"/><path class="cls-1" d="M36.84,12.42h-.16l0-.16a2.35,2.35,0,0,0-.11-.44,1.82,1.82,0,0,1-.5.38,2.21,2.21,0,0,1-1,.26,2.38,2.38,0,0,1-.87-.18,2.13,2.13,0,0,1-1-3.37,2.39,2.39,0,0,0-3.8,1.19l0,.16-.17,0a2.37,2.37,0,0,0-2.81,2.06l0,.14-.14,0a2.41,2.41,0,0,0-2,2.36,2.33,2.33,0,0,0,.53,1.46H38.6a2.31,2.31,0,0,0,.53-1.46A2.4,2.4,0,0,0,36.84,12.42Z" transform="translate(-2)"/><path class="cls-2" d="M31.71,40.45c1,0,1.75.14,1.75-.25s-.78-.71-1.75-.71S30,39.81,30,40.2,30.74,40.45,31.71,40.45Z" transform="translate(-2)"/><path class="cls-1" d="M25.22,17.66v7.58c0,1.72,4.79,11,4.79,12.57s-4,2.27-4.79,2.74c-.42.24-.24.85.58.85H37.48c.86,0,1.19-.48.75-.85-.62-.52-4.79-1.2-4.79-2.74S38.23,27,38.23,25.24V17.66c0-.23,0-.5-.16-.5H25.38C25.2,17.16,25.22,17.47,25.22,17.66Zm6.49,21.83c1,0,1.75.32,1.75.71s-.78.25-1.75.25S30,40.59,30,40.2,30.74,39.49,31.71,39.49Z" transform="translate(-2)"/><path class="cls-3" d="M33.71,28.46a.31.31,0,0,0-.43.11,1.82,1.82,0,0,1-3.15,0,.31.31,0,1,0-.54.32,2.44,2.44,0,0,0,4.24,0A.31.31,0,0,0,33.71,28.46Z" transform="translate(-2)"/><path class="cls-3" d="M28.23,25.06a1.29,1.29,0,0,0,2.57,0,1.29,1.29,0,1,0-2.57,0Z" transform="translate(-2)"/><path class="cls-3" d="M32.62,25.06a1.29,1.29,0,0,0,2.57,0,1.29,1.29,0,1,0-2.57,0Z" transform="translate(-2)"/></svg>