<svg id="Layer_1" data-name="Layer 1" xmlns="http://www.w3.org/2000/svg" viewBox="0 0 101.83 53"><defs><style>.cls-1{fill:#f09;}.cls-2{fill:none;}.cls-3{fill:#fff;}</style></defs><title>mlkshklogo_amazon</title><path class="cls-1" d="M30.08,37.27v7.51H23.23V36.86c0-4.44,2.76-7.57,7.64-7.57a8.31,8.31,0,0,1,5.77,2,8.31,8.31,0,0,1,5.77-2c4.91,0,7.68,3.14,7.68,7.57v7.92H43.18V37.27c0-.85-.41-1.81-1.54-1.81a1.62,1.62,0,0,0-1.57,1.81v7.51H33.22V37.27a1.64,1.64,0,0,0-1.57-1.81A1.62,1.62,0,0,0,30.08,37.27Z" transform="translate(-23.23)"/><path class="cls-1" d="M63.55,23.62h6.86V29.9h3.17v5.53H70.41v1.13c0,1.54.24,2.66,2.29,2.66h.89v5.56h-2.8c-5.9,0-7.23-3.38-7.23-8.05Z" transform="translate(-23.23)"/><path class="cls-1" d="M74.92,39.56a13.22,13.22,0,0,0,4.81,1.33c.61,0,1.36-.1,1.36-.85s-1.06-.68-3-1.13a4.24,4.24,0,0,1-3.65-4.27c0-3.75,3.75-5.36,7-5.36a14.5,14.5,0,0,1,5.66,1v4.47a14.48,14.48,0,0,0-4.67-1c-.61,0-1.3.14-1.3.68s.75.72,1.81.92l.85.14c2.8.48,4.06,2,4.06,4.33,0,3.86-3,5.6-7.13,5.6a13.5,13.5,0,0,1-5.8-1.16Z" transform="translate(-23.23)"/><path class="cls-1" d="M88.88,21.92h6.86v8.53a6,6,0,0,1,3.69-1.16c4.37,0,6.62,2.56,6.62,8v7.51H99.19V37.27a1.71,1.71,0,0,0-1.74-1.81,1.67,1.67,0,0,0-1.71,1.81v7.51H88.88Z" transform="translate(-23.23)"/><path class="cls-1" d="M107.35,37.34c0-4.44,3.69-8.05,8.87-8.05s8.84,3.62,8.84,8.05c0,4.16-2.73,8.05-7.64,8.05a6.76,6.76,0,0,1-3.21-.75V53h-6.86Zm6.86,0a2,2,0,0,0,4,0,2,2,0,1,0-4,0Z" transform="translate(-23.23)"/><path class="cls-1" d="M51.53,7.46l0,.09-.09.2h0l.11.18.25,2.22h.37a3.47,3.47,0,0,1,1-1.25l-.12-1.1v0h0l.1-.13h0l-.11-.12h0l.11-.12h0l-.1-.13h0l.12-.11h0L53.13,7h0l.13-.09h0l-.08-.14h0l.14-.08h0l-.06-.15h0l.15-.07h0l0-.13v0h0l.15-.05h0c0-.05,0-.1,0-.16h0l.16,0h0c0-.05,0-.11,0-.16h0l.16,0h0c0-.05,0-.11,0-.16h.16c0-.05,0-.11,0-.16h.16l0-.16h0l.16,0h0l0-.06,0-.09h0l6-4.06-.11-.15-.74-1L59.43,0,53.71,3.88l-.1.07-.06,0-.21,0h0l-.1.19-.21,0h0l-.08.2h0l-.21.06h0l-.06.21-.2.08h0c0,.07,0,.14,0,.21l-.19.1h0v.21L52,5.46h0c0,.07,0,.14,0,.22l-.17.14h0c0,.07,0,.14,0,.21l-.16.15h0c0,.07,0,.14,0,.21h0l-.14.17h0c0,.07,0,.14.06.21h0L51.52,7h0l.08.2-.11.19h0Z" transform="translate(-23.23)"/><path class="cls-1" d="M60.28,8.32a2,2,0,0,0-.6-.24c-.11-.68-.44-1.11-.65-1-.43.18.25.78.25.78a2.53,2.53,0,0,1-.14,2.33.51.51,0,0,1-.2-.14,1,1,0,0,0-1.06,0,1.36,1.36,0,0,0-.48,1.53,1.67,1.67,0,0,0,2.27.87,1.36,1.36,0,0,0,.67-1.46,1,1,0,0,0-.81-.69.49.49,0,0,1-.22,0,3.47,3.47,0,0,0,.4-2,1.45,1.45,0,0,1,.48.22c-.32,1.36,1.36,1.91,1.36,1.91C62.06,8.35,60.28,8.32,60.28,8.32Z" transform="translate(-23.23)"/><path class="cls-1" d="M60.91,13.43h-.17l0-.17a2.54,2.54,0,0,0-.12-.47,2,2,0,0,1-.54.41,2.4,2.4,0,0,1-1.09.28,2.58,2.58,0,0,1-.94-.19A2.3,2.3,0,0,1,57,9.64a2.58,2.58,0,0,0-4.11,1.28l-.05.18-.18,0a2.57,2.57,0,0,0-3,2.23l0,.15-.15,0A2.6,2.6,0,0,0,47.29,16a2.52,2.52,0,0,0,.57,1.58H62.81A2.5,2.5,0,0,0,63.39,16,2.6,2.6,0,0,0,60.91,13.43Z" transform="translate(-23.23)"/><path class="cls-2" d="M55.36,43.75c1,0,1.89.15,1.89-.28s-.85-.76-1.89-.76-1.89.34-1.89.76S54.31,43.75,55.36,43.75Z" transform="translate(-23.23)"/><path class="cls-1" d="M48.34,19.1V27.3c0,1.86,5.18,11.94,5.18,13.6s-4.29,2.45-5.18,3c-.45.26-.26.92.63.92H61.6c.93,0,1.28-.52.81-.92-.68-.57-5.18-1.3-5.18-3s5.18-11.74,5.18-13.6V19.1c0-.24,0-.54-.17-.54H48.52C48.32,18.57,48.34,18.9,48.34,19.1Zm7,23.61c1,0,1.89.34,1.89.76s-.85.28-1.89.28-1.89.15-1.89-.28S54.31,42.71,55.36,42.71Z" transform="translate(-23.23)"/><path class="cls-3" d="M57.53,30.78a.34.34,0,0,0-.46.12,2,2,0,0,1-3.4,0,.34.34,0,1,0-.59.34,2.64,2.64,0,0,0,4.58,0A.34.34,0,0,0,57.53,30.78Z" transform="translate(-23.23)"/><path class="cls-3" d="M51.59,27.11a1.39,1.39,0,0,0,2.78,0,1.39,1.39,0,1,0-2.78,0Z" transform="translate(-23.23)"/><path class="cls-3" d="M56.35,27.11a1.39,1.39,0,0,0,2.78,0,1.39,1.39,0,1,0-2.78,0Z" transform="translate(-23.23)"/></svg>