<svg id="Layer_1" data-name="Layer 1" xmlns="http://www.w3.org/2000/svg" viewBox="0 0 11 9"><defs><style>.cls-1{fill:#ff9d00;}</style></defs><title>save-tiny</title><path class="cls-1" d="M8.94,9V5a.28.28,0,0,0-.24-.26H2.3A.29.29,0,0,0,2.06,5V9Z"/><path class="cls-1" d="M0,.75V.69L0,.32v0L1.93.44H2L2,.42H2l0,0,.06,0h0l0,0h.06l0,0h.06l0,0h.06v0l0,0h.06l0,.06h.06l0,.06.06,0h0l0,.06h0l.06,0h0V.88h0l.05,0h0V1l.05,0h0v.06l0,0H3s0,0,0,.06l.4,1h0l-.31.15,0,0-.4-1h0l0,0h0v0h0v0h0s0,0,0,0h0s0,0,0,0h0v0h0V1h0V1h0l0,0h0l0,0h0l0,0h0l0,0h0l0,0h0l0,0h0l0,0H2l0,0H2l0,0H2Z"/><path class="cls-1" d="M11,.75V.69l0-.37v0L9.07.44H9L9,.42H9l0,0-.06,0h0l0,0H8.75l0,0H8.65l0,0H8.55v0l0,0H8.45l0,.06H8.36l0,.06-.06,0h0l0,.06h0L8.2.82h0V.88h0l-.05,0h0V1L8.07,1h0v.06l0,0H8s0,0,0,.06l-.4,1h0l.31.15,0,0,.4-1h0l0,0h0v0h0v0h0s0,0,0,0h0s0,0,0,0h0v0h0V1h0V1h0l0,0h0l0,0h0l0,0h0l0,0h0l0,0h0l0,0h0l0,0H9l0,0H9l0,0H9Z"/><path class="cls-1" d="M8.92,3.88a1.15,1.15,0,0,0,.31-.77A1.24,1.24,0,0,0,8,1.89a1.25,1.25,0,0,0-1.25-1H6.71a1.28,1.28,0,0,0-2.42,0l-.23,0A1.25,1.25,0,0,0,2.81,1.91a1.23,1.23,0,0,0-1,1.19,1.16,1.16,0,0,0,.31.77Z"/></svg>