<svg id="Layer_1" data-name="Layer 1" xmlns="http://www.w3.org/2000/svg" viewBox="0 0 20.23 15"><defs><style>.cls-1{fill:#ff9d00;}</style></defs><title>save-icon-15px</title><path class="cls-1" d="M16.43,15V8.26c-.05-.24-.12-.35-.44-.44H4.23a.5.5,0,0,0-.43.44V15Z"/><path class="cls-1" d="M0,1.25V1.15L.08.54v0L3.55.74h.1l.1,0h0l.09.06.1,0h0L4,.79H4l.11,0h0l.08.07h.11L4.4.9h.11l0,0,0,.05h.11l.06.09.11,0h0l0,.1.11,0H5l0,.1H5l.1,0h0l0,.1h0l.1,0h0l0,.11.09.05h0v.11l.09.06h0s0,.07,0,.11l.74,1.69,0,0h0l-.56.25L5.53,4,4.8,2.28h0l-.08,0h0l0-.08h0l-.08,0h0V2.06h0L4.59,2h0S4.6,2,4.6,2H4.52s0-.05,0-.08H4.43V1.79H4.34V1.73h0l-.08,0h0l0-.08h0l-.08,0h0l0-.07h0L4,1.63H4l0-.07H4l-.07,0h0l0-.07h0l-.07,0h0l-.05-.06h0l-.06,0h0l0,0,0,0h0Z"/><path class="cls-1" d="M20.23,1.25V1.15L20.15.54v0L16.68.74h-.1l-.1,0h0l-.09.06-.1,0h0L16.2.79h0l-.11,0h0L16,.84H15.9L15.83.9h-.11l0,0,0,.05h-.11l-.06.09-.11,0h0l0,.1-.11,0h0l0,.1h0l-.1,0h0l0,.1h0l-.1,0h0l0,.11-.09.05h0v.11l-.09.06h0s0,.07,0,.11L14,3.65l0,0h0l.56.25.09,0,.73-1.68h0l.08,0h0l0-.08h0l.08,0h0V2.06h0l.08,0h0s0-.05,0-.08h.08s0-.05,0-.08h.08V1.79h.08V1.73h0l.08,0h0l0-.08h0l.08,0h0l0-.07h0l.07,0h0l0-.07h0l.07,0h0l0-.07h0l.07,0h0l.05-.06h0l.06,0h0l0,0,0,0h0Z"/><path class="cls-1" d="M16.4,6.47A1.83,1.83,0,0,0,17,5.17a2.18,2.18,0,0,0-2.22-2,2.24,2.24,0,0,0-2.3-1.74h-.12A2.31,2.31,0,0,0,10.11,0,2.31,2.31,0,0,0,7.89,1.45a2.72,2.72,0,0,0-.42,0,2.24,2.24,0,0,0-2.3,1.77,2.13,2.13,0,0,0-1.9,2,1.84,1.84,0,0,0,.57,1.29Z"/></svg>