<svg id="Layer_1" data-name="Layer 1" xmlns="http://www.w3.org/2000/svg" viewBox="0 0 20.23 15"><defs><style>.cls-1{fill:#ff9d00;}</style></defs><title>saved-this</title><path class="cls-1" d="M19.33,17.84V11.1c-.05-.24-.12-.35-.44-.44H7.12a.5.5,0,0,0-.43.44v6.74Z" transform="translate(-2.9 -2.84)"/><path class="cls-1" d="M2.9,4.09V4L3,3.38v0l3.46.24h.1l.1,0h0l.09.06.1,0h0l.08.07h0L7,3.6H7l.08.07h.11l.07.08h.11l0,0,0,.05h.11l.06.09.11,0h0l0,.1.11,0h0l0,.1h0l.1,0H8l0,.1h0l.1,0h0l0,.11.09.05h0v.11l.09.06h0s0,.07,0,.11L9.12,6.5l0,0h0l-.56.25-.09,0L7.69,5.12h0l-.08,0h0l0-.08h0L7.56,5h0V4.9h0l-.08,0h0s0-.05,0-.08H7.41s0-.05,0-.08H7.33V4.63H7.24V4.57h0l-.08,0h0l0-.08h0L7,4.52H7l0-.07H7l-.07,0h0l0-.07h0l-.07,0h0l0-.07h0l-.07,0h0l-.05-.06h0l-.06,0h0l0,0,0,0h0Z" transform="translate(-2.9 -2.84)"/><path class="cls-1" d="M23.12,4.09V4L23,3.38v0l-3.46.24h-.1l-.1,0h0l-.09.06-.1,0h0l-.08.07h0L19,3.6h0l-.08.07h-.11l-.07.08h-.11l0,0,0,.05h-.11l-.06.09-.11,0h0l0,.1-.11,0h0l0,.1h0l-.1,0h0l0,.1h0l-.1,0h0l0,.11-.09.05h0v.11l-.09.06h0s0,.07,0,.11L16.89,6.5l0,0h0l.56.25.09,0,.73-1.68h0l.08,0h0l0-.08h0l.08,0h0V4.9h0l.08,0h0s0-.05,0-.08h.08s0-.05,0-.08h.08V4.63h.08V4.57h0l.08,0h0l0-.08h0l.08,0h0l0-.07h0l.07,0h0l0-.07h0l.07,0h0l0-.07h0l.07,0h0l.05-.06h0l.06,0h0l0,0,0,0h0Z" transform="translate(-2.9 -2.84)"/><path class="cls-1" d="M19.29,9.31A1.83,1.83,0,0,0,19.86,8a2.18,2.18,0,0,0-2.22-2,2.24,2.24,0,0,0-2.3-1.74h-.12A2.31,2.31,0,0,0,13,2.84a2.31,2.31,0,0,0-2.23,1.45,2.72,2.72,0,0,0-.42,0A2.24,2.24,0,0,0,8.05,6a2.13,2.13,0,0,0-1.9,2,1.84,1.84,0,0,0,.57,1.29Z" transform="translate(-2.9 -2.84)"/></svg>