<svg id="Layer_1" data-name="Layer 1" xmlns="http://www.w3.org/2000/svg" viewBox="0 0 53 61"><defs><style>.cls-1{fill:#f09;}.cls-2{fill:#fff;}</style></defs><title>sign-in-friend</title><rect class="cls-1" width="53" height="61"/><path class="cls-2" d="M37.94,40.06a1.8,1.8,0,0,0-2.45.65,10.37,10.37,0,0,1-18,0,1.8,1.8,0,1,0-3.11,1.8,14,14,0,0,0,24.19,0A1.8,1.8,0,0,0,37.94,40.06Z"/><path class="cls-2" d="M6.6,20.66A7.23,7.23,0,0,0,14,27.94,7.34,7.34,0,1,0,6.6,20.66Z"/><path class="cls-2" d="M31.72,20.66a7.34,7.34,0,0,0,14.69,0,7.34,7.34,0,1,0-14.69,0Z"/></svg>